{
   "accessors" : 
   [
      {
         "bufferView" : 0,
         "byteOffset" : 0,
         "componentType" : 5126,
         "count" : 1001,
         "max" : [ 0.0, 0.0, 10.159999847412109 ],
         "min" : [ 0.0, 0.0, 0.0 ],
         "type" : "VEC3"
      },
      {
         "bufferView" : 1,
         "byteOffset" : 0,
         "componentType" : 5125,
         "count" : 2000,
         "type" : "SCALAR"
      },
      {
         "bufferView" : 2,
         "byteOffset" : 0,
         "componentType" : 5126,
         "count" : 1235,
         "max" : [ 5.75, 5.75, 10.159999847412109 ],
         "min" : [ 0.0, -6.6661631915256346e-17, -10.0 ],
         "type" : "VEC3"
      },
      {
         "bufferView" : 3,
         "byteOffset" : 0,
         "componentType" : 5126,
         "count" : 1235,
         "normalized" : false,
         "type" : "VEC2"
      },
      {
         "bufferView" : 4,
         "byteOffset" : 0,
         "componentType" : 5125,
         "count" : 6675,
         "type" : "SCALAR"
      },
      {
         "bufferView" : 6,
         "byteOffset" : 0,
         "componentType" : 5126,
         "count" : 1231,
         "max" : [ 5.75, 8.5904241860848822e-17, 10.159999847412109 ],
         "min" : [ 0.0, -5.75, -10.0 ],
         "type" : "VEC3"
      },
      {
         "bufferView" : 7,
         "byteOffset" : 0,
         "componentType" : 5126,
         "count" : 1231,
         "normalized" : false,
         "type" : "VEC2"
      },
      {
         "bufferView" : 8,
         "byteOffset" : 0,
         "componentType" : 5125,
         "count" : 6669,
         "type" : "SCALAR"
      }
   ],
   "asset" : 
   {
      "generator" : "VTK",
      "version" : "2.0"
   },
   "bufferViews" : 
   [
      {
         "buffer" : 0,
         "byteLength" : 12012,
         "byteOffset" : 0
      },
      {
         "buffer" : 1,
         "byteLength" : 8000,
         "byteOffset" : 0
      },
      {
         "buffer" : 2,
         "byteLength" : 14820,
         "byteOffset" : 0
      },
      {
         "buffer" : 3,
         "byteLength" : 9880,
         "byteOffset" : 0
      },
      {
         "buffer" : 4,
         "byteLength" : 26700,
         "byteOffset" : 0
      },
      {
         "buffer" : 5,
         "byteLength" : 116,
         "byteOffset" : 0
      },
      {
         "buffer" : 6,
         "byteLength" : 14772,
         "byteOffset" : 0
      },
      {
         "buffer" : 7,
         "byteLength" : 9848,
         "byteOffset" : 0
      },
      {
         "buffer" : 8,
         "byteLength" : 26676,
         "byteOffset" : 0
      },
      {
         "buffer" : 9,
         "byteLength" : 273,
         "byteOffset" : 0
      }
   ],
   "buffers" : 
   [
      {
         "byteLength" : 12012,
         "uri" : "data:application/octet-stream;base64,"
      },
      {
         "byteLength" : 8000,
         "uri" : "data:application/octet-stream;base64,"
      },
      {
         "byteLength" : 14820,
         "uri" : "data:application/octet-stream;base64,"
      },
      {
         "byteLength" : 9880,
         "uri" : "data:application/octet-stream;base64,"
      },
      {
         "byteLength" : 26700,
         "uri" : "data:application/octet-stream;base64,"
      },
      {
         "byteLength" : 116,
         "uri" : "data:application/octet-stream;base64,"
      },
      {
         "byteLength" : 14772,
         "uri" : "data:application/octet-stream;base64,"
      },
      {
         "byteLength" : 9848,
         "uri" : "data:application/octet-stream;base64,"
      },
      {
         "byteLength" : 26676,
         "uri" : "data:application/octet-stream;base64,"
      },
      {
         "byteLength" : 273,
         "uri" : "data:application/octet-stream;base64,"
      }
   ],
   "cameras" : 
   [
      {
         "perspective" : 
         {
            "aspectRatio" : 1.3953068592057762,
            "yfov" : 0.52359877559829882,
            "zfar" : 68.559477194845812,
            "znear" : 35.548159138975727
         },
         "type" : "perspective"
      }
   ],
   "extensions": {
      "KHR_materials_variants": {
         "variants": [
            {
               "name": "pressure"
            },
            {
               "name": "temprature"
            },
            {
               "name": "porosity"
            },
            {
               "name": "saturation"
            },
            {
               "name": "permeability"
            }
         ]
      }
   },
   "extensionsUsed": [
      "KHR_materials_variants"
   ],
   "images" : 
   [
      {
         "bufferView" :5,
         "mimeType" : "image/png"
      },
      {
         "bufferView" : 9,
         "mimeType" : "image/png"
      }
   ],
   "materials" : 
   [
      {
         "pbrMetallicRoughness" : 
         {
            "baseColorFactor" : [ 1.0, 1.0, 1.0, 1.0 ],
            "metallicFactor" : 0.0,
            "roughnessFactor" : 1.0
         }
      },
      {
         "pbrMetallicRoughness" : 
         {
            "baseColorFactor" : [ 1.0, 1.0, 1.0, 1.0 ],
            "baseColorTexture" : 
            {
               "index" : 0,
               "texCoord" : 0
            },
            "metallicFactor" : 0.0,
            "roughnessFactor" : 1.0
         }
      },
      {
         "pbrMetallicRoughness" : 
         {
            "baseColorFactor" : [ 1.0, 1.0, 1.0, 1.0 ],
            "baseColorTexture" : 
            {
               "index" : 1,
               "texCoord" : 0
            },
            "metallicFactor" : 0.0,
            "roughnessFactor" : 1.0
         }
      },
      {
         "pbrMetallicRoughness" : 
         {
            "baseColorFactor" : [ 1.0, 1.0, 1.0, 1.0 ],
            "baseColorTexture" : 
            {
               "index" : 2,
               "texCoord" : 0
            },
            "metallicFactor" : 0.0,
            "roughnessFactor" : 1.0
         }
      },
      {
         "pbrMetallicRoughness" : 
         {
            "baseColorFactor" : [ 1.0, 1.0, 1.0, 1.0 ],
            "baseColorTexture" : 
            {
               "index" : 3,
               "texCoord" : 0
            },
            "metallicFactor" : 0.0,
            "roughnessFactor" : 1.0
         }
      }
   ],
   "meshes" : 
   [
      {
         "name" : "mesh0",
         "primitives" : 
         [
            {
               "attributes" : 
               {
                  "POSITION" : 0
               },
               "indices" : 1,
               "material" : 0,
               "mode" : 1
            }
         ]
      },
      {
         "name" : "mesh1",
         "primitives" : 
         [
            {
               "attributes" : 
               {
                  "POSITION" : 2,
                  "TEXCOORD_0" : 3
               },
               "extensions": {
                  "KHR_materials_variants": {
                     "mappings": [
                        {
                           "material": 0,
                           "variants": [
                              0
                           ]
                        },
                        {
                           "material": 1,
                           "variants": [
                              1
                           ]
                        }]
                     }
                  },
               "indices" : 4,
               "material" : 1,
               "mode" : 4
            }
         ]
      },
      {
         "name" : "mesh2",
         "primitives" : 
         [
            {
               "attributes" : 
               {
                  "POSITION" : 5,
                  "TEXCOORD_0" : 6
               },
               "extensions": {
                  "KHR_materials_variants": {
                     "mappings": [
                        {
                           "material": 2,
                           "variants": [
                              0
                           ]
                        },
                        {
                           "material": 3,
                           "variants": [
                              1
                           ]
                        }]
                     }
                  },
               "indices" : 7,
               "material" : 3,
               "mode" : 4
            }
         ]
      }
   ],
   "nodes" : 
   [
      {
         "mesh" : 0,
         "name" : "mesh0"
      },
      {
         "mesh" : 1,
         "name" : "mesh1"
      },
      {
         "mesh" : 2,
         "name" : "mesh2"
      },
      {
         "camera" : 0,
         "matrix" : 
         [
            0.32641300624303182,
            0.2046040141812811,
            -0.9228172878399562,
            0.0,
            -0.078817054352765509,
            -0.96699994743313999,
            -0.2422787105947565,
            0.0,
            -0.94193546556998253,
            0.15181666260727344,
            -0.29951507417198492,
            0.0,
            -1.3289814004630838,
            -2.2569108324939289,
            -47.432165804647646,
            1.0
         ],
         "name" : "Camera Node"
      },
      {
         "children" : [ 0, 1, 2, 3 ],
         "name" : "Renderer Node"
      }
   ],
   "samplers" : 
   [
      {
         "magFilter" : 9728,
         "minFilter" : 9728,
         "wrapS" : 33071,
         "wrapT" : 33071
      },
      {
         "magFilter" : 9728,
         "minFilter" : 9728,
         "wrapS" : 33071,
         "wrapT" : 33071
      }
   ],
   "scene" : 0,
   "scenes" : 
   [
      {
         "name" : "Layer 0",
         "nodes" : [ 4 ]
      }
   ],
   "textures" : 
   [
      {
         "sampler" : 0,
         "source" : 0
      },
      {
         "sampler" : 1,
         "source" : 1
      },
      {
         "sampler" : 0,
         "source" : 0
      },
      {
         "sampler" : 1,
         "source" : 1
      }
   ]
}