{
   "accessors" : 
   [
      {
         "bufferView" : 0,
         "byteOffset" : 0,
         "componentType" : 5126,
         "count" : 882,
         "max" : [ 0.10000000149011612, 0.10000000149011612, 0.0099999997764825821 ],
         "min" : [ 0.0, 0.0, 0.0 ],
         "type" : "VEC3"
      },
      {
         "bufferView" : 1,
         "byteOffset" : 0,
         "componentType" : 5126,
         "count" : 882,
         "normalized" : false,
         "type" : "VEC2"
      },
      {
         "bufferView" : 2,
         "byteOffset" : 0,
         "componentType" : 5125,
         "count" : 5280,
         "type" : "SCALAR"
      }
   ],
   "asset" : 
   {
      "generator" : "VTK",
      "version" : "2.0"
   },
   "bufferViews" : 
   [
      {
         "buffer" : 0,
         "byteLength" : 10584,
         "byteOffset" : 0
      },
      {
         "buffer" : 1,
         "byteLength" : 7056,
         "byteOffset" : 0
      },
      {
         "buffer" : 2,
         "byteLength" : 21120,
         "byteOffset" : 0
      },
      {
         "buffer" : 3,
         "byteLength" : 273,
         "byteOffset" : 0
      }
   ],
   "buffers" : 
   [
      {
         "byteLength" : 10584,
         "uri" : "data:application/octet-stream;base64,"
      },
      {
         "byteLength" : 7056,
         "uri" : "data:application/octet-stream;base64,"
      },
      {
         "byteLength" : 21120,
         "uri" : "data:application/octet-stream;base64,"
      },
      {
         "byteLength" : 273,
         "uri" : "data:application/octet-stream;base64,"
      }
   ],
   "cameras" : 
   [
      {
         "perspective" : 
         {
            "aspectRatio" : 2.8239564428312161,
            "yfov" : 0.52359877559829882,
            "zfar" : 0.38381134516844395,
            "znear" : 0.18708712654522436
         },
         "type" : "perspective"
      }
   ],
   "images" : 
   [
      {
         "bufferView" : 3,
         "mimeType" : "image/png"
      }
   ],
   "materials" : 
   [
      {
         "pbrMetallicRoughness" : 
         {
            "baseColorFactor" : [ 1.0, 1.0, 1.0, 1.0 ],
            "baseColorTexture" : 
            {
               "index" : 0,
               "texCoord" : 0
            },
            "metallicFactor" : 0.0,
            "roughnessFactor" : 1.0
         }
      }
   ],
   "meshes" : 
   [
      {
         "name" : "mesh0",
         "primitives" : 
         [
            {
               "attributes" : 
               {
                  "POSITION" : 0,
                  "TEXCOORD_0" : 1
               },
               "indices" : 2,
               "material" : 0,
               "mode" : 4
            }
         ]
      }
   ],
   "nodes" : 
   [
      {
         "mesh" : 0,
         "name" : "mesh0"
      },
      {
         "camera" : 0,
         "matrix" : 
         [
            0.89453518567729173,
            0.13422787729264776,
            -0.42636800834819089,
            0.0,
            0.018010227689706549,
            0.94225107289775345,
            0.3344227075448033,
            0.0,
            0.4466345634675602,
            -0.30683186369825088,
            0.84045926381687275,
            0.0,
            -0.047860444115671752,
            -0.052289789027359257,
            -0.27349227696762857,
            1.0
         ],
         "name" : "Camera Node"
      },
      {
         "children" : [ 0, 1 ],
         "name" : "Renderer Node"
      }
   ],
   "samplers" : 
   [
      {
         "magFilter" : 9728,
         "minFilter" : 9728,
         "wrapS" : 33071,
         "wrapT" : 33071
      }
   ],
   "scene" : 0,
   "scenes" : 
   [
      {
         "name" : "Layer 0",
         "nodes" : [ 2 ]
      }
   ],
   "textures" : 
   [
      {
         "sampler" : 0,
         "source" : 0
      }
   ]
}